# xmcd
#
# Track frame offsets:
#	150
#	14152
#	28872
#	42722
#	58795
#	74970
#	91940
#	105082
#	120882
#	132712
#	149090
#	164132
#
# Disc length: 2322 seconds
#
# Revision: 0
# Processed by: cddbd v1.4PL0 Copyright (c) Steve Scherf et al.
# Submitted via: dBpowerAMP V4.0
#
DISCID=bf09100c
DTITLE=Sergio Reis - Do Tamanho do Brasil - Disco A
DYEAR=1900
DGENRE=Country
TTITLE0=Os olhinhos do menino
TTITLE1=Se não fosse por amor
TTITLE2=Sêde de carinho
TTITLE3=Obras de poeta
TTITLE4=Esse é meu Brasil
TTITLE5=Rolinha cabocla
TTITLE6=Coração pede perdão
TTITLE7=Cidade Grande
TTITLE8=Fio de cabelo
TTITLE9=Coração de sapé
TTITLE10=Marlena
TTITLE11=Escravo do coração
EXTD=
EXTT0=
EXTT1=
EXTT2=
EXTT3=
EXTT4=
EXTT5=
EXTT6=
EXTT7=
EXTT8=
EXTT9=
EXTT10=
EXTT11=
PLAYORDER=
